<?xml version="1.0" encoding="utf-8"?><svg xmlns="http://www.w3.org/2000/svg" xmlns:xlink="http://www.w3.org/1999/xlink"><symbol viewBox="0 0 82 77" id="2-1" xmlns="http://www.w3.org/2000/svg"><path d="M80.558 1.457a4.9 4.9 0 00-6.975 0l-9.975 10.08a1.226 1.226 0 00-.002 1.72 1.19 1.19 0 001.699.002L75.28 3.178a2.515 2.515 0 013.58 0c.475.48.736 1.123.736 1.81 0 .686-.261 1.329-.737 1.81L45.225 40.786a2.515 2.515 0 01-3.58 0 2.554 2.554 0 01-.737-1.81c0-.43.103-.843.297-1.21l.01-.016c.114-.212.257-.409.43-.584l18.63-18.826c.47-.475.471-1.244.002-1.72a1.19 1.19 0 00-1.698 0L40.312 35.078c.42-3.517 1.767-6.668 2.626-8.389a2.118 2.118 0 00-.087-2.031c-.33-.546-.877-.872-1.46-.872h-2.82c-.664 0-1.202.545-1.202 1.216 0 .671.538 1.216 1.202 1.216h1.92c-1.026 2.176-2.42 5.787-2.671 9.738H6.284C6.032 32 4.638 28.39 3.614 26.219h11.94c.195.913.538 2.344 1.045 3.874.954 2.887 4.687 4.68 5.11 4.874.316.146.68.146.996 0 .422-.194 4.154-1.986 5.112-4.874.505-1.53.847-2.961 1.043-3.874h1.876c.664 0 1.201-.545 1.201-1.216 0-.671-.537-1.216-1.2-1.216h-2.863c-.584 0-1.084.426-1.183 1.01-.004.02-.378 2.178-1.152 4.523-.451 1.36-2.254 2.587-3.332 3.18-1.057-.584-2.883-1.825-3.33-3.179-.777-2.346-1.152-4.504-1.156-4.525-.1-.583-.6-1.009-1.183-1.009H2.852c-.655 0-1.255.344-1.605.92a2.07 2.07 0 00-.082 1.982c.752 1.505 2.411 5.225 2.71 9.268H2.527c-1.147 0-2.08.944-2.08 2.104v2.557c0 1.16.933 2.104 2.08 2.104h.84a382.556 382.556 0 01-.772 5.35 1.214 1.214 0 001.19 1.4c.583 0 1.095-.431 1.185-1.033.319-2.114.608-4.13.821-5.717h32.52c.594 4.418 1.684 11.413 3.248 20.829.485 2.918-.282 5.842-2.105 8.024-1.612 1.93-3.81 2.993-6.186 2.993H10.835c-2.376 0-4.573-1.063-6.186-2.993-1.823-2.182-2.59-5.106-2.104-8.025.451-2.715.869-5.27 1.242-7.591a1.214 1.214 0 00-.992-1.395 1.202 1.202 0 00-1.379 1.004c-.372 2.318-.79 4.868-1.24 7.579-.603 3.625.359 7.27 2.639 9.998C4.862 75.595 7.785 77 10.835 77H33.27c3.05 0 5.973-1.405 8.02-3.855 2.28-2.729 3.242-6.373 2.64-9.998-1.469-8.84-2.518-15.533-3.128-19.951a4.89 4.89 0 002.634.77 4.89 4.89 0 003.487-1.458l33.636-33.99A4.984 4.984 0 0082 4.988c0-1.337-.512-2.59-1.442-3.53zM2.85 40.29v-1.902h35.69a5.093 5.093 0 00.137 1.902H2.85z"/><path d="M10.835 67.79c-.38 0-.738-.198-1.065-.589-.548-.656-.773-1.576-.615-2.525 1.238-7.452 2.19-13.46 2.83-17.858a1.214 1.214 0 00-1.014-1.38 1.204 1.204 0 00-1.363 1.025c-.638 4.382-1.587 10.374-2.822 17.81-.275 1.655.144 3.295 1.15 4.499.782.935 1.812 1.45 2.9 1.45.663 0 1.2-.545 1.2-1.216 0-.672-.537-1.216-1.2-1.216zM43.522 40.156c.664 0 1.202-.544 1.202-1.215 0-.672-.538-1.216-1.202-1.216-.663 0-1.2.544-1.2 1.216 0 .671.537 1.215 1.2 1.215z"/></symbol><symbol viewBox="0 0 67 79" id="2-2" xmlns="http://www.w3.org/2000/svg"><path d="M56.49 25.017h-1.815a5.198 5.198 0 00-3.44-1.317h-2.627v-5.267a1.312 1.312 0 001.314-1.316V11.85a1.318 1.318 0 00-1.314-1.317H31.529V7.9h1.314a3.937 3.937 0 002.787-1.157 3.954 3.954 0 000-5.586A3.937 3.937 0 0032.843 0h-10.51a3.937 3.937 0 00-2.787 1.157 3.955 3.955 0 000 5.586A3.937 3.937 0 0022.333 7.9h1.314v2.633H6.568a1.312 1.312 0 00-1.313 1.317v3.95H1.313a1.312 1.312 0 00-1.213.813 1.32 1.32 0 00.285 1.435l6.183 6.197V71.1a1.312 1.312 0 00-1.313 1.317v5.266A1.318 1.318 0 006.568 79h42.04a1.312 1.312 0 001.314-1.317v-5.266a1.318 1.318 0 00-1.314-1.317v-5.267h2.627a5.199 5.199 0 003.44-1.316h1.815a9.196 9.196 0 006.396-2.595 9.237 9.237 0 002.8-6.32A3.95 3.95 0 0067 52.666v-15.8a3.957 3.957 0 00-1.314-2.935 9.237 9.237 0 00-2.8-6.32 9.195 9.195 0 00-6.396-2.595zm1.286 30.554a1.317 1.317 0 01-1.286 1.046h-1.815a5.198 5.198 0 00-3.44-1.317h-2.627V34.233h2.627a5.199 5.199 0 003.44-1.316h1.815a1.312 1.312 0 011.286 1.045 3.95 3.95 0 00-1.286 2.905v15.8a3.957 3.957 0 001.286 2.904zM26.274 18.433v3.95H9.196v-3.95h17.078zM45.98 32.917H9.196v-7.9H45.98v7.9zM9.196 35.55h17.078v18.433H9.196V35.55zm19.706 0H45.98v18.433H28.902V35.55zm22.333-9.217c.697 0 1.365.278 1.858.772a2.636 2.636 0 010 3.724 2.624 2.624 0 01-1.858.771h-2.627v-5.267h2.627zm-5.255-3.95H28.902v-3.95H45.98v3.95zM21.02 3.95a1.318 1.318 0 011.313-1.317h10.51a1.312 1.312 0 011.314 1.317 1.318 1.318 0 01-1.314 1.317h-10.51A1.312 1.312 0 0121.02 3.95zm5.254 3.95h2.628v2.633h-2.628V7.9zM7.882 13.167h39.412V15.8H7.882v-2.633zm-1.314 5.266v2.089l-2.083-2.089h2.083zm40.726 57.934H7.882v-2.634h39.412v2.634zM9.196 71.1V56.617H45.98V71.1H9.196zm42.04-7.9h-2.628v-5.267h2.627c.697 0 1.365.278 1.858.772a2.636 2.636 0 010 3.724 2.624 2.624 0 01-1.858.771zm13.137-10.533a1.302 1.302 0 01-.657 1.13 1.315 1.315 0 00-.657 1.138v.365a6.599 6.599 0 01-1.926 4.653 6.569 6.569 0 01-4.643 1.93h-.186a4.74 4.74 0 000-2.633h.186a3.937 3.937 0 002.787-1.157 3.955 3.955 0 001.154-2.793v-.365a1.319 1.319 0 00-.656-1.139 1.3 1.3 0 01-.657-1.13v-15.8a1.304 1.304 0 01.657-1.129 1.316 1.316 0 00.656-1.139v-.365a3.954 3.954 0 00-1.154-2.793 3.937 3.937 0 00-2.787-1.157h-.186a4.74 4.74 0 000-2.633h.186a6.57 6.57 0 014.643 1.93 6.599 6.599 0 011.926 4.653v.365a1.32 1.32 0 00.657 1.139 1.3 1.3 0 01.657 1.13v15.8z"/></symbol><symbol viewBox="0 0 74 84" id="2-3" xmlns="http://www.w3.org/2000/svg"><path d="M72.595 22.299l-5.573-7.194a3.873 3.873 0 00-3.08-1.515h-4.604a2.564 2.564 0 00-2.256-1.36h-5.186L36.76 7.138a6.526 6.526 0 00-1.09-.265l.748-3.775a2.599 2.599 0 00-.531-2.15A2.546 2.546 0 0033.903 0h-4.792c-.772 0-1.494.345-1.983.948a2.598 2.598 0 00-.532 2.15l.748 3.774a6.53 6.53 0 00-1.09.265l-15.136 5.094H5.932c-1.225 0-2.394.59-3.129 1.58L.38 17.07a1.915 1.915 0 00-.179 2 1.88 1.88 0 001.693 1.057h2.011c.04 0 .078.02.103.052l8.325 11.42.698 5.63a1.223 1.223 0 001.36 1.07 1.228 1.228 0 001.059-1.374l-.726-5.857.468-16.377h5.817l3.61 29.157c.043.35.133.684.26.998h-8.336a.128.128 0 01-.127-.113l-.357-2.886a1.22 1.22 0 00-1.36-1.069c-.668.085-1.142.7-1.059 1.374l.358 2.887a2.578 2.578 0 002.545 2.268h.285v7.052h-.314c-1.28 0-2.347.927-2.537 2.205l-3.403 22.9c-.169 1.139.16 2.291.904 3.163A3.892 3.892 0 0014.442 84h2.975c.673 0 1.218-.55 1.218-1.23 0-.68-.545-1.23-1.218-1.23h-2.975c-.436 0-.832-.184-1.117-.518a1.477 1.477 0 01-.34-1.191l.188-1.267h36.668l.188 1.267c.064.435-.057.858-.34 1.191-.285.334-.682.517-1.117.517h-26.28c-.673 0-1.219.551-1.219 1.23 0 .68.546 1.231 1.219 1.231h26.28c1.14 0 2.22-.5 2.963-1.372a3.972 3.972 0 00.905-3.162l-3.403-22.901a2.557 2.557 0 00-2.536-2.205h-.315v-7.053h.285c1.291 0 2.385-.975 2.546-2.268l2.243-18.116h3.951c.506 0 1.001-.098 1.47-.29l2.272-.93a4.14 4.14 0 014.92 1.402 4.377 4.377 0 01.738 3.51l-3.964 18.207a.127.127 0 01-.124.102h-3.44c-1.415 0-2.566 1.161-2.566 2.589v2.718c0 1.428 1.15 2.59 2.565 2.59h6.813a3.906 3.906 0 003.804-3.03l6.118-25.834a6.682 6.682 0 00-1.222-5.658zM57.21 14.82v3.15a1.48 1.48 0 01-1.221 1.466l-3.887.682.672-5.426h4.308c.07 0 .128.057.128.128zM29.012 2.508c.038-.047.084-.047.099-.047h4.792c.015 0 .06 0 .099.047.038.047.03.092.026.107l-.828 4.18h-3.386l-.828-4.18a.123.123 0 01.026-.107zM3.905 17.667h-.92l1.768-2.38a1.475 1.475 0 011.179-.595h6.822l-.367 12.83-6.416-8.8a2.566 2.566 0 00-2.066-1.055zm23.12-8.195a4.119 4.119 0 011.318-.216h6.329c.448 0 .891.072 1.317.216l8.199 2.759H18.826l8.2-2.76zm.013 34.072l-3.573-28.852H39.55l-3.572 28.851a1.48 1.48 0 01-1.462 1.303h-6.016a1.48 1.48 0 01-1.461-1.302zM16.388 56.93a.127.127 0 01.125-.11h8.405a3.907 3.907 0 00-.251.902l-2.731 18.381h-8.397l2.848-19.173zm19.642 1.157l2.677 18.016H24.4l2.677-18.016a1.487 1.487 0 011.457-1.267h6.038c.723 0 1.35.545 1.457 1.267zm10.597-1.157l2.848 19.173h-8.304l-2.73-18.38a3.9 3.9 0 00-.251-.903h8.31c.064 0 .117.046.127.11zm-2.878-2.57H19.265v-7.053H43.75v7.052zm2.849-9.626a.128.128 0 01-.127.112h-8.336c.127-.313.217-.647.26-.997l3.61-29.157h8.312l-3.72 30.042zm24.848-17.35l-6.118 25.834a1.471 1.471 0 01-1.433 1.141h-6.813a.128.128 0 01-.127-.128v-2.718c0-.071.057-.129.127-.129h3.441a2.586 2.586 0 002.505-2.033l3.963-18.209a6.857 6.857 0 00-1.156-5.496 6.56 6.56 0 00-7.799-2.224l-2.271.93c-.177.073-.363.11-.554.11h-3.647l.222-1.79 4.62-.812a3.93 3.93 0 003.241-3.89v-1.92h4.294c.457 0 .88.21 1.16.572l5.575 7.193a4.215 4.215 0 01.77 3.57z"/></symbol><symbol viewBox="0 0 79 79" id="2-4" xmlns="http://www.w3.org/2000/svg"><g clip-path="url(#dclip0_565:569)"><path d="M3.323 34.233h18.433c.727 0 1.317-.59 1.317-1.317V31.6h2.633v1.316c0 .728.59 1.317 1.316 1.317h1.605l1.068 4.27c.148.586.674.997 1.278.997h5.266c.604 0 1.13-.411 1.277-.997l1.068-4.27h1.605c.727 0 1.317-.59 1.317-1.317v-6.582c.501.002.961-.28 1.185-.729l2.262-4.539h5.77v44.767H41.94a7.857 7.857 0 003.515-6.543v-9.257c0-.727-.59-1.316-1.317-1.316H23.073c-.728 0-1.317.59-1.317 1.316h-6.584c-.727 0-1.316.59-1.316 1.317v7.9c0 .727.59 1.317 1.316 1.317h6.697a7.873 7.873 0 003.401 5.266H15.173c-.728 0-1.317.59-1.317 1.317v10.533c0 .727.59 1.317 1.317 1.317h60.566c.728 0 1.317-.59 1.317-1.317V1.317c0-.728-.59-1.317-1.317-1.317H15.173c-.728 0-1.317.59-1.317 1.317V19.75c0 .727.59 1.317 1.317 1.317h7.086l2.269 4.538c.223.446.679.729 1.178.729v2.633h-2.633V27.65c0-.727-.59-1.316-1.317-1.316H3.323c-.728 0-1.317.589-1.317 1.316v5.266c0 .728.59 1.317 1.317 1.317zm13.166 18.433h5.267v5.268h-5.267v-5.268zm7.9 6.584v-7.9h18.434v7.94a5.233 5.233 0 01-5.228 5.226h-7.979a5.233 5.233 0 01-5.226-5.226v-.04zm10.822-22.383H32l-.658-2.634h4.526l-.658 2.634zm18.145-15.8h21.067v44.766H53.356V21.066zm21.067 55.3H16.489v-7.9h57.934v7.9zM16.489 2.633h57.934v15.8H16.489v-15.8zm8.714 18.433h16.806L40.692 23.7H26.52l-1.317-2.634zm13.67 5.268V31.6H28.339v-5.267h10.534zM4.639 28.966h15.8V31.6H4.64v-2.633z"/><path d="M33.606 15.8a5.266 5.266 0 100-10.533 5.266 5.266 0 000 10.533zm0-7.9a2.633 2.633 0 110 5.266 2.633 2.633 0 010-5.266zM41.506 9.217h2.633v2.633h-2.633V9.217zM46.773 9.217h2.634v2.633h-2.634V9.217zM62.572 51.35h2.634v10.533h-2.634V51.35zM57.307 51.35h2.633v10.533h-2.633V51.35zM67.84 51.35h2.633v10.533H67.84V51.35z"/></g><defs><clipPath id="dclip0_565:569"><path d="M0 0h79v79H0z"/></clipPath></defs></symbol><symbol viewBox="0 0 72 72" id="2-5" xmlns="http://www.w3.org/2000/svg"><g clip-path="url(#eclip0_565:577)"><path d="M25.5 21a1.5 1.5 0 01-1.344-.828l-9-18a1.502 1.502 0 01.672-2.013A1.497 1.497 0 0117.84.83l9 18A1.5 1.5 0 0125.5 21zM46.5 21a1.503 1.503 0 01-1.341-2.172l9-18a1.5 1.5 0 112.686 1.34l-9 18A1.505 1.505 0 0146.5 21z"/><path d="M58.5 3h-45a1.5 1.5 0 010-3h45a1.5 1.5 0 010 3zM52.5 30h-33a4.505 4.505 0 01-4.5-4.5v-3c0-2.481 2.019-4.5 4.5-4.5h33c2.481 0 4.5 2.019 4.5 4.5v3c0 2.481-2.019 4.5-4.5 4.5zm-33-9a1.5 1.5 0 00-1.5 1.5v3a1.5 1.5 0 001.5 1.5h33a1.5 1.5 0 001.5-1.5v-3a1.5 1.5 0 00-1.5-1.5h-33z"/><path d="M52.5 72h-33C13.71 72 9 67.29 9 61.5c0-1.428.282-2.814.837-4.116l11.262-29.42a1.5 1.5 0 112.802 1.074L12.618 58.511A7.522 7.522 0 0012 61.5c0 4.134 3.366 7.5 7.5 7.5h33c4.134 0 7.5-3.366 7.5-7.5a7.44 7.44 0 00-.597-2.937L48.099 29.037a1.5 1.5 0 112.802-1.074l11.283 29.475A10.35 10.35 0 0163 61.5C63 67.29 58.29 72 52.5 72z"/><path d="M45.366 49.5c-2.949 0-4.491-1.479-5.73-2.667C38.529 45.768 37.728 45 35.985 45c-1.74 0-2.538.768-3.645 1.833-1.239 1.188-2.778 2.667-5.724 2.667s-4.485-1.479-5.721-2.67C19.788 45.768 18.987 45 17.25 45a1.5 1.5 0 010-3c2.946 0 4.485 1.479 5.721 2.67 1.107 1.062 1.908 1.83 3.645 1.83s2.538-.768 3.645-1.83c1.236-1.188 2.778-2.67 5.724-2.67 2.949 0 4.491 1.479 5.73 2.667 1.11 1.062 1.911 1.833 3.651 1.833 1.743 0 2.544-.768 3.654-1.833C50.259 43.479 51.801 42 54.75 42a1.5 1.5 0 010 3c-1.743 0-2.544.768-3.654 1.833-1.239 1.188-2.781 2.667-5.73 2.667z"/></g><defs><clipPath id="eclip0_565:577"><path d="M0 0h72v72H0z"/></clipPath></defs></symbol><symbol viewBox="0 0 83 83" id="2-6" xmlns="http://www.w3.org/2000/svg"><path d="M57.408 56.717h-2.767V53.95h4.15c.764 0 1.384-.62 1.384-1.383v-5.534c0-.764-.62-1.383-1.384-1.383h-2.766V13.833c0-.764-.62-1.383-1.384-1.383h-4.15V2.767h5.534V0H25.59v2.767h5.534v9.683h-4.15c-.764 0-1.384.62-1.384 1.383V45.65h-2.766c-.764 0-1.384.62-1.384 1.383v5.534c0 .764.62 1.383 1.384 1.383h4.15v26.283A2.767 2.767 0 0029.74 83h22.134a2.767 2.767 0 002.766-2.767v-4.15h2.767a4.15 4.15 0 004.15-4.15V60.867a4.15 4.15 0 00-4.15-4.15zM33.891 2.767h13.834v9.683H33.89V2.767zm0 12.45h13.834v24.9H33.89v-24.9zm17.984 65.016H29.74v-12.45h22.134v12.45zm0-15.216H29.74V53.95h22.134v11.067zM24.208 51.183v-2.766h2.767c.764 0 1.383-.62 1.383-1.384V15.217h2.767V41.5c0 .764.62 1.383 1.383 1.383h16.6c.764 0 1.383-.62 1.383-1.383V15.217h2.767v31.816c0 .764.62 1.384 1.383 1.384h2.767v2.766h-33.2zm34.583 20.75c0 .764-.619 1.384-1.383 1.384h-2.767V59.483h2.767c.764 0 1.383.62 1.383 1.384v11.066z"/><path d="M42.193 17.983h-2.767v2.767h2.767v-2.767zM42.193 23.517h-2.767v2.766h2.767v-2.766zM42.193 29.05h-2.767v2.767h2.767V29.05zM42.193 34.583h-2.767v2.767h2.767v-2.767z"/></symbol><symbol viewBox="0 0 67 66" id="2-7" xmlns="http://www.w3.org/2000/svg"><g clip-path="url(#gclip0_565:524)"><path d="M65.691 26.62h-10.73v-2.73c0-.711-.586-1.288-1.309-1.288H25.387c-.723 0-1.309.577-1.309 1.289s.586 1.289 1.309 1.289h26.957v9.882c0 8.682-4.706 16.75-12.303 21.141H14.92c-7.598-4.39-12.304-12.46-12.304-21.14V25.18h8.768a1.3 1.3 0 001.308-1.29c0-.711-.586-1.288-1.308-1.288H1.309C.586 22.602 0 23.179 0 23.89v11.172c0 4.872 1.33 9.65 3.845 13.816a27.34 27.34 0 006.475 7.324H1.309c-.723 0-1.309.577-1.309 1.29C0 62.182 3.874 66 8.637 66h40.828c4.762 0 8.637-3.816 8.637-8.508 0-.712-.586-1.289-1.309-1.289H44.641a27.37 27.37 0 006.06-6.66h3.693c6.95 0 12.606-5.57 12.606-12.418v-9.217c0-.712-.586-1.289-1.309-1.289zM55.341 58.78c-.599 2.652-3.006 4.64-5.876 4.64H8.637c-2.87 0-5.277-1.988-5.877-4.64h52.581zm-.38-23.718v-.71h4.187v2.772c0 2.583-2.132 4.684-4.754 4.684h-.297c.57-2.193.864-4.46.864-6.746zm9.422 2.062c0 5.426-4.481 9.84-9.99 9.84h-2.226c.417-.84.79-1.701 1.117-2.578h1.11c4.065 0 7.372-3.258 7.372-7.262v-4.06c0-.712-.586-1.29-1.309-1.29h-5.496v-2.578h9.422v7.928zM28.73 7.134l-.681-.842a3.32 3.32 0 01-.004-4.202 1.276 1.276 0 00-.211-1.81 1.322 1.322 0 00-1.839.208 5.858 5.858 0 00.007 7.41l.68.842a4.34 4.34 0 01.005 5.491l-.698.866a1.276 1.276 0 00.212 1.811c.24.188.527.28.813.28.385 0 .767-.168 1.026-.488l.697-.866a6.877 6.877 0 00-.007-8.7zM35.984 10.032l-.681-.842c-1-1.236-1.001-2.963-.004-4.201a1.276 1.276 0 00-.211-1.811 1.322 1.322 0 00-1.839.208 5.858 5.858 0 00.006 7.41l.681.843a4.34 4.34 0 01.005 5.49l-.698.866a1.276 1.276 0 00.212 1.811c.24.188.528.28.813.28.385 0 .767-.167 1.025-.488l.698-.866a6.877 6.877 0 00-.007-8.7zM21.476 10.033l-.681-.843c-1-1.235-1.001-2.963-.004-4.201a1.276 1.276 0 00-.211-1.811 1.322 1.322 0 00-1.839.208 5.858 5.858 0 00.007 7.41l.68.843a4.34 4.34 0 01.005 5.49l-.697.866a1.276 1.276 0 00.21 1.811c.242.188.528.28.813.28.386 0 .768-.167 1.026-.488l.698-.866a6.877 6.877 0 00-.007-8.7z"/><path d="M19.665 22.979a1.329 1.329 0 00-.925-.378c-.344 0-.681.138-.925.378a1.292 1.292 0 00-.383.911 1.295 1.295 0 001.308 1.29c.344 0 .682-.137.925-.377.245-.241.384-.573.384-.913 0-.339-.139-.671-.384-.911zM47.37 33.773a1.3 1.3 0 00-1.308 1.29c0 4.784-1.97 9.487-5.405 12.9a1.276 1.276 0 00.008 1.824c.255.249.588.373.921.373.337 0 .674-.127.93-.381 3.917-3.893 6.163-9.257 6.163-14.717a1.3 1.3 0 00-1.308-1.289zM38.457 51.463a1.32 1.32 0 00-1.783-.49l-.03.017a1.279 1.279 0 00-.496 1.756 1.32 1.32 0 001.783.49l.03-.017c.629-.35.851-1.136.496-1.756z"/></g><defs><clipPath id="gclip0_565:524"><path d="M0 0h67v66H0z"/></clipPath></defs></symbol><symbol viewBox="0 0 84 84" id="2-8" xmlns="http://www.w3.org/2000/svg"><g clip-path="url(#hclip0_565:563)"><path d="M68.095 69.934h-1.944V23.126c0-.08-.006-.157-.017-.233a11.38 11.38 0 002.626-7.282V3.252A1.641 1.641 0 0068.452 0H15.549a1.64 1.64 0 00-.307 3.252v12.359c0 2.755.98 5.286 2.608 7.262v47.061h-1.944c-2.757 0-5 2.243-5 5v7.425c0 .906.735 1.641 1.64 1.641h58.908a1.64 1.64 0 001.641-1.64v-7.426c0-2.757-2.243-5-5-5zM65.478 3.28v12.33c0 4.494-3.655 8.15-8.15 8.15H26.674c-4.494 0-8.15-3.656-8.15-8.15V3.281h46.956zM39.536 33.637h4.93v3.565h-4.93v-3.565zm-5.705-3.28v-3.315h16.34v3.314H33.83zm-12.7-4.75a11.36 11.36 0 005.542 1.435h3.877v4.955c0 .906.735 1.64 1.64 1.64h4.065v5.206c0 .906.735 1.64 1.64 1.64h8.21a1.64 1.64 0 001.641-1.64v-5.206h4.065a1.64 1.64 0 001.64-1.64v-4.955h3.878c2.008 0 3.898-.52 5.54-1.435v44.327H51.645c.572-.978.9-2.115.9-3.328v-.852h4.338a1.64 1.64 0 001.64-1.64v-8.01a1.64 1.64 0 00-1.64-1.64h-4.338v-1.306a1.64 1.64 0 00-1.64-1.64h-17.76a1.64 1.64 0 00-1.641 1.64v13.448c0 1.213.328 2.35.9 3.328H21.133V25.607zm13.654 41V54.798h14.48v11.807a3.331 3.331 0 01-3.328 3.328h-7.824a3.331 3.331 0 01-3.328-3.328zm17.76-8.862h2.698v4.727h-2.698v-4.727zM69.814 80.72H14.188v-5.785c0-.948.77-1.72 1.718-1.72h52.19a1.72 1.72 0 011.718 1.72v5.785z"/><path d="M27.004 19.725a4.924 4.924 0 004.919-4.918 4.924 4.924 0 00-4.919-4.919 4.924 4.924 0 00-4.918 4.919 4.924 4.924 0 004.918 4.918zm0-6.555a1.64 1.64 0 011.637 1.637 1.64 1.64 0 01-1.637 1.637 1.64 1.64 0 01-1.637-1.637 1.64 1.64 0 011.637-1.637zM50.809 13.516h9.466a1.64 1.64 0 000-3.282H50.81a1.64 1.64 0 000 3.282zM50.809 19.38h9.466a1.64 1.64 0 000-3.281H50.81a1.64 1.64 0 000 3.28z"/></g><defs><clipPath id="hclip0_565:563"><path d="M0 0h84v84H0z"/></clipPath></defs></symbol><symbol viewBox="0 0 36 35" id="h-1" xmlns="http://www.w3.org/2000/svg"><path d="M34 33l-7.733-7.492m4.177-9.73c0 7.609-6.367 13.778-14.222 13.778C8.368 29.556 2 23.387 2 15.778 2 8.168 8.368 2 16.222 2c7.855 0 14.222 6.169 14.222 13.778z" stroke-width="3" stroke-linecap="round" stroke-linejoin="round"/></symbol><symbol viewBox="0 0 37 35" id="h-2" xmlns="http://www.w3.org/2000/svg"><path d="M2 2h6l4.02 19.766c.137.68.513 1.29 1.061 1.725a3.032 3.032 0 001.939.652H29.6a3.032 3.032 0 001.939-.652 2.945 2.945 0 001.061-1.725L35 9.381H9.5m6 22.143c0 .815-.672 1.476-1.5 1.476s-1.5-.66-1.5-1.476.672-1.476 1.5-1.476 1.5.66 1.5 1.476zm16.5 0c0 .815-.672 1.476-1.5 1.476s-1.5-.66-1.5-1.476.672-1.476 1.5-1.476 1.5.66 1.5 1.476z" stroke-width="3" stroke-linecap="round" stroke-linejoin="round"/></symbol><symbol viewBox="0 0 33 36" id="h-3" xmlns="http://www.w3.org/2000/svg"><path d="M31 34v-3.556a7.043 7.043 0 00-2.123-5.028 7.322 7.322 0 00-5.127-2.083H9.25c-1.923 0-3.767.75-5.127 2.083A7.043 7.043 0 002 30.444V34M23.75 9.111c0 3.928-3.246 7.111-7.25 7.111s-7.25-3.184-7.25-7.11C9.25 5.183 12.496 2 16.5 2s7.25 3.184 7.25 7.111z" stroke-width="3" stroke-linecap="round" stroke-linejoin="round"/></symbol></svg>